<mxfile host="65bd71144e">
    <diagram id="VEL7uXHsn3Sm_1jTIy69" name="第 1 页">
        <mxGraphModel dx="496" dy="434" grid="1" gridSize="10" guides="1" tooltips="1" connect="1" arrows="1" fold="1" page="1" pageScale="1" pageWidth="827" pageHeight="1169" math="0" shadow="0">
            <root>
                <mxCell id="0"/>
                <mxCell id="1" parent="0"/>
                <mxCell id="2" value="用户层" style="rounded=0;whiteSpace=wrap;html=1;" parent="1" vertex="1">
                    <mxGeometry x="90" y="140" width="60" height="80" as="geometry"/>
                </mxCell>
                <mxCell id="4" value="业务层" style="rounded=0;whiteSpace=wrap;html=1;" parent="1" vertex="1">
                    <mxGeometry x="90" y="250" width="60" height="80" as="geometry"/>
                </mxCell>
                <mxCell id="5" value="技术层" style="rounded=0;whiteSpace=wrap;html=1;" parent="1" vertex="1">
                    <mxGeometry x="90" y="360" width="60" height="80" as="geometry"/>
                </mxCell>
                <mxCell id="6" value="存储层" style="rounded=0;whiteSpace=wrap;html=1;" parent="1" vertex="1">
                    <mxGeometry x="90" y="470" width="60" height="80" as="geometry"/>
                </mxCell>
                <mxCell id="7" value="" style="rounded=1;whiteSpace=wrap;html=1;" parent="1" vertex="1">
                    <mxGeometry x="180" y="140" width="260" height="80" as="geometry"/>
                </mxCell>
                <mxCell id="9" value="" style="rounded=1;whiteSpace=wrap;html=1;" parent="1" vertex="1">
                    <mxGeometry x="180" y="250" width="260" height="80" as="geometry"/>
                </mxCell>
                <mxCell id="10" value="" style="rounded=1;whiteSpace=wrap;html=1;" parent="1" vertex="1">
                    <mxGeometry x="180" y="360" width="260" height="80" as="geometry"/>
                </mxCell>
                <mxCell id="11" value="" style="rounded=1;whiteSpace=wrap;html=1;" parent="1" vertex="1">
                    <mxGeometry x="180" y="470" width="260" height="80" as="geometry"/>
                </mxCell>
                <mxCell id="13" value="" style="shape=actor;whiteSpace=wrap;html=1;" parent="1" vertex="1">
                    <mxGeometry x="295" y="150" width="30" height="40" as="geometry"/>
                </mxCell>
                <mxCell id="14" value="网站管理员" style="text;html=1;strokeColor=none;fillColor=none;align=center;verticalAlign=middle;whiteSpace=wrap;rounded=0;fontSize=11;" parent="1" vertex="1">
                    <mxGeometry x="280" y="190" width="60" height="30" as="geometry"/>
                </mxCell>
                <mxCell id="18" value="" style="shape=doubleArrow;direction=south;whiteSpace=wrap;html=1;fontSize=11;" parent="1" vertex="1">
                    <mxGeometry x="295" y="210" width="30" height="50" as="geometry"/>
                </mxCell>
                <mxCell id="19" value="" style="shape=doubleArrow;direction=south;whiteSpace=wrap;html=1;fontSize=11;" parent="1" vertex="1">
                    <mxGeometry x="295" y="320" width="30" height="50" as="geometry"/>
                </mxCell>
                <mxCell id="20" value="" style="shape=doubleArrow;direction=south;whiteSpace=wrap;html=1;fontSize=11;" parent="1" vertex="1">
                    <mxGeometry x="295" y="430" width="30" height="50" as="geometry"/>
                </mxCell>
                <mxCell id="21" value="登录功能" style="rounded=0;whiteSpace=wrap;html=1;fontSize=11;" parent="1" vertex="1">
                    <mxGeometry x="210" y="265" width="85" height="20" as="geometry"/>
                </mxCell>
                <mxCell id="22" value="查看检测历史" style="rounded=0;whiteSpace=wrap;html=1;fontSize=11;" parent="1" vertex="1">
                    <mxGeometry x="325" y="265" width="85" height="20" as="geometry"/>
                </mxCell>
                <mxCell id="23" value="个人信息相关" style="rounded=0;whiteSpace=wrap;html=1;fontSize=11;" parent="1" vertex="1">
                    <mxGeometry x="210" y="290" width="85" height="20" as="geometry"/>
                </mxCell>
                <mxCell id="24" value="解析文件" style="rounded=0;whiteSpace=wrap;html=1;fontSize=11;" parent="1" vertex="1">
                    <mxGeometry x="325" y="290" width="85" height="20" as="geometry"/>
                </mxCell>
                <mxCell id="25" value="Vue3" style="rounded=1;whiteSpace=wrap;html=1;fontSize=11;" parent="1" vertex="1">
                    <mxGeometry x="190" y="385" width="50" height="30" as="geometry"/>
                </mxCell>
                <mxCell id="26" value="Gin" style="rounded=1;whiteSpace=wrap;html=1;fontSize=11;" parent="1" vertex="1">
                    <mxGeometry x="250" y="385" width="50" height="30" as="geometry"/>
                </mxCell>
                <mxCell id="27" value="Python" style="rounded=1;whiteSpace=wrap;html=1;fontSize=11;" parent="1" vertex="1">
                    <mxGeometry x="320" y="385" width="50" height="30" as="geometry"/>
                </mxCell>
                <mxCell id="28" value="TODO" style="rounded=1;whiteSpace=wrap;html=1;fontSize=11;" parent="1" vertex="1">
                    <mxGeometry x="380" y="385" width="50" height="30" as="geometry"/>
                </mxCell>
                <mxCell id="33" value="用户信息存储数据库" style="shape=cylinder3;whiteSpace=wrap;html=1;boundedLbl=1;backgroundOutline=1;size=15;fontSize=9;" parent="1" vertex="1">
                    <mxGeometry x="210" y="480" width="85" height="60" as="geometry"/>
                </mxCell>
                <mxCell id="34" value="MySQL" style="text;html=1;strokeColor=none;fillColor=none;align=center;verticalAlign=middle;whiteSpace=wrap;rounded=0;fontSize=11;" parent="1" vertex="1">
                    <mxGeometry x="222.5" y="480" width="60" height="30" as="geometry"/>
                </mxCell>
                <mxCell id="35" value="用户检测存储数据库" style="shape=cylinder3;whiteSpace=wrap;html=1;boundedLbl=1;backgroundOutline=1;size=15;fontSize=9;" parent="1" vertex="1">
                    <mxGeometry x="325" y="480" width="85" height="60" as="geometry"/>
                </mxCell>
                <mxCell id="36" value="MySQL" style="text;html=1;strokeColor=none;fillColor=none;align=center;verticalAlign=middle;whiteSpace=wrap;rounded=0;fontSize=11;" parent="1" vertex="1">
                    <mxGeometry x="337.5" y="480" width="60" height="30" as="geometry"/>
                </mxCell>
            </root>
        </mxGraphModel>
    </diagram>
</mxfile>